# xmcd
#
# Track frame offsets:
#        150
#        18705
#        33320
#        61630
#        79625
#        100995
#        117212
#        142070
#        162100
#        185320
#        206720
#        230362
#
# Disc length: 3325 seconds
#
# Revision: 4
# Processed by: cddbd v1.5.1PL2 Copyright (c) Steve Scherf et al.
# Submitted via: ExactAudioCopy v0.95a5
#
DISCID=980cfb0c
DTITLE=Raitt, Bonnie - Silver Lining
DYEAR=1900
DGENRE=
TTITLE0=Fools Game
TTITLE1=I Can't Help You Now
TTITLE2=Silver Lining
TTITLE3=Time Of Our Lives
TTITLE4=Gnawin' On It
TTITLE5=Monkey Business
TTITLE6=Wherever You May Be
TTITLE7=Valley Of Pain
TTITLE8=Hear Me Lord
TTITLE9=No Gettin' Over You
TTITLE10=Back Around
TTITLE11=Wounded Heart
EXTD=
EXTT0=
EXTT1=
EXTT2=
EXTT3=
EXTT4=
EXTT5=
EXTT6=
EXTT7=
EXTT8=
EXTT9=
EXTT10=
EXTT11=
PLAYORDER=
